<svg id="Capa_1" enable-background="new 0 0 488.471 488.471" height="512" viewBox="0 0 488.471 488.471" width="512" xmlns="http://www.w3.org/2000/svg"><path style="fill: #198bdf;" d="m483.999 111.318-106.847-106.846c-5.962-5.962-15.621-5.962-21.584 0l-351.066 351.067c-2.862 2.862-4.472 6.738-4.472 10.792l-.03 106.876c0 4.04 1.61 7.93 4.472 10.792s6.752 4.472 10.792 4.472l106.876-.03c4.054 0 7.93-1.61 10.792-4.472l351.067-351.067c5.962-5.962 5.962-15.621 0-21.584zm-368.203 346.622-85.298.03.03-85.298 251.868-251.868 85.268 85.268c-.001 0-251.868 251.868-251.868 251.868zm273.453-273.453-85.268-85.267 62.371-62.371 85.268 85.268z"/></svg>